<svg width="347" height="911" viewBox="0 0 347 911" fill="none" xmlns="http://www.w3.org/2000/svg">
<path d="M267.862 848.245C266.897 854.809 265.914 861.374 264.948 867.939C273.51 865.876 282.334 863.797 291.043 865.09C297.559 866.056 304.025 868.904 310.491 867.644C311.899 860.392 312.112 850.766 305.269 847.967C302.29 846.739 298.917 847.394 295.725 847.803C287.442 848.851 278.913 848.081 270.956 845.527" fill="#FCFAEC"/>
<path d="M191.935 860.212L189.201 875.142C188.988 876.321 188.775 877.614 189.332 878.678C190.609 881.117 194.21 880.348 196.797 879.398C206.275 875.928 216.687 874.995 226.64 876.697C229.767 871.033 230.733 864.223 229.309 857.904C218.078 857.871 206.832 857.822 195.602 857.789C193.015 857.789 189.332 859.344 190.478 861.669" fill="#FCFAEC"/>
<path d="M196.208 866.907C195.095 869.608 193.949 872.293 192.786 874.978C197.992 879.725 206.292 876.959 212.546 873.717C218.799 870.476 226.542 866.989 232.452 870.836C237.822 874.323 238.395 881.903 237.724 888.271C237.265 892.642 236.479 896.98 235.383 901.236C235.022 902.66 234.597 904.117 233.68 905.263C231.683 907.784 228.049 908.112 224.84 908.226C198.533 909.209 172.209 909.896 145.885 910.305C143.004 910.355 139.631 910.142 138.043 907.752C138.043 903.135 137.389 898.846 137.389 894.23C137.389 892.429 137.389 890.579 137.929 888.86C139.68 883.196 146.229 880.74 152.007 879.398C154.954 878.71 157.917 878.105 160.88 877.597C163.5 877.139 166.119 876.762 168.656 875.993C171.832 875.043 174.812 873.537 177.873 872.244C183.979 869.641 189.594 867.84 196.192 866.94L196.208 866.907Z" fill="#5A5A82"/>
<path d="M260.856 899.828C264.212 904.33 269.974 906.229 275.491 907.162C285.722 908.898 296.38 908.145 306.267 904.985C309.018 904.101 311.801 902.988 313.88 900.942C315.959 898.895 317.154 895.736 316.188 892.986C315.828 891.954 315.189 891.038 314.698 890.055C311.571 883.704 315.124 875.207 311.13 869.347C309.083 866.351 305.531 864.845 302.093 863.781C291.567 860.507 272.495 858.329 263.884 867.529C258.056 873.75 261.281 891.725 260.872 899.828H260.856Z" fill="#5A5A82"/>
<path d="M245.319 81.9246C230.618 87.2286 212.889 84.2328 201.103 74.4596C199.04 72.7571 195.733 70.8417 193.85 68.9591C191.509 68.3043 188.89 68.6972 186.877 69.9741C194.292 74.1649 197.583 82.9068 197.386 91.0102C197.255 96.5271 192.131 98.8026 192.344 104.319C192.819 116.663 193.31 128.99 193.785 141.333C192.05 141.677 193.343 141.333 194.849 142.217C212.709 137.355 231.961 137.11 249.952 141.497C253.652 142.397 258.105 143.33 260.871 140.858" fill="#F7EDDA"/>
<path d="M182.047 155.478C184.061 150.173 187.531 145.524 191.526 142.316C198.205 136.962 206.161 134.867 213.92 133.083C219.781 131.74 225.658 130.512 231.535 129.383C243.322 127.157 264.964 122.998 273.313 137.519C284.084 156.247 254.748 145.459 245.974 145.197C234.776 144.869 223.694 148.291 212.774 151.712C208.665 152.989 204.524 154.315 200.447 155.854C194.309 156.116 188.039 157.098 182.031 155.494L182.047 155.478Z" fill="#FCFAEC"/>
<path d="M170.604 72.4623C170.588 72.3641 170.555 72.2659 170.539 72.1677C170.539 71.8239 170.506 71.4637 170.506 71.1199C172.667 66.9455 176.334 63.7041 178.184 59.3332C179.248 56.8121 179.641 54.0455 180.017 51.3116C180.427 48.3649 181.016 46.2367 180.901 43.2737C180.574 34.3518 183.521 25.3152 188.972 18.5542C189.872 20.5841 191.068 22.4668 192.508 24.1038C192.77 29.1787 191.068 35.0066 190.118 39.9832C189.038 45.6802 190.069 51.5408 190.216 57.336C190.364 63.1311 189.332 69.5156 185.24 73.2972C184.552 73.9357 183.75 74.4923 182.85 74.5905C181.573 74.7215 180.378 73.9193 179.117 73.6901C176.711 73.2481 174.157 75.3272 173.879 77.9301C173.797 78.6504 173.289 79.0105 172.667 79.1251C172.847 76.997 172.241 74.8033 170.948 73.1826C170.899 73.0844 170.85 72.9862 170.817 72.8716C170.752 72.7242 170.686 72.5769 170.604 72.4459V72.4623Z" fill="#F7EDDA"/>
<path d="M250.902 86.4429C243.814 93.5641 232.076 93.826 222.941 89.7988C213.806 85.7717 206.653 78.2576 199.793 70.9073C203.051 71.1364 204.262 66.6673 204.328 63.3441C204.41 59.5952 204.492 55.8628 204.574 52.1139C204.639 48.8398 204.672 45.3856 203.084 42.5208C201.496 39.6723 197.682 37.8224 194.931 39.5413C191.281 50.9352 187.794 63.9989 193.736 74.3614C196.945 79.9438 202.609 84.0037 204.721 90.1099C206.178 94.268 205.769 98.819 205.343 103.223C204.541 111.555 202.691 121.41 195.128 124.684C190.118 126.845 184.061 125.061 180.018 121.328C175.974 117.596 173.715 112.292 172.373 106.939C169.95 97.2802 170.195 86.934 173.093 77.4227C173.682 75.4746 174.828 73.2155 176.842 73.15C177.857 73.1173 178.79 73.7066 179.805 73.8376C182.08 74.1322 183.996 72.1187 185.109 70.0724C187.925 64.8829 188.17 58.7112 188.334 52.7851C188.53 45.975 188.727 39.1648 188.923 32.3547C188.989 29.85 189.022 27.1816 187.696 25.0698C186.566 23.2527 184.601 22.1559 183.259 20.4861C179.445 15.7713 183.194 7.24231 189.185 6.98038C198.074 6.60386 206.472 1.31618 215.313 0.31758C221.861 -0.419093 229.178 -0.173535 234.04 4.34473C244.125 13.7087 258.793 19.6839 260.184 33.5006C260.675 38.4118 259.742 43.3393 258.825 48.185C257.598 54.635 256.353 61.0849 255.126 67.5513C253.8 74.5088 255.846 81.4499 250.886 86.4429H250.902Z" fill="#2E302D"/>
<path d="M205.556 77.0295C210.827 77.0295 210.827 68.8442 205.556 68.8442C200.284 68.8442 200.284 77.0295 205.556 77.0295Z" fill="#2E302D"/>
<path d="M206.684 78.2082C211.956 78.2082 211.956 70.0229 206.684 70.0229C201.413 70.0229 201.413 78.2082 206.684 78.2082Z" fill="#2E302D"/>
<path d="M205.097 77.9629C206.308 78.5031 207.536 79.0433 208.747 79.5672C208.976 79.7145 209.238 79.7964 209.5 79.8127C209.778 79.8782 210.04 79.8618 210.319 79.78C210.793 79.649 211.301 79.2889 211.547 78.8469C211.792 78.3721 211.923 77.7991 211.759 77.2753C211.612 76.8005 211.301 76.2603 210.826 76.0475C209.615 75.5073 208.387 74.967 207.176 74.4432C206.946 74.2959 206.685 74.214 206.423 74.1976C206.144 74.1321 205.882 74.1485 205.604 74.2304C205.129 74.3613 204.622 74.7215 204.376 75.1635C204.131 75.6382 204 76.2112 204.163 76.7351C204.311 77.2098 204.622 77.75 205.097 77.9629Z" fill="#2E302D"/>
<path d="M202.167 70.2033L201.316 70.367C201.185 70.3998 201.07 70.4653 200.972 70.5471C200.857 70.6126 200.775 70.7108 200.71 70.8418C200.628 70.9564 200.595 71.0873 200.595 71.2183C200.563 71.3493 200.579 71.4966 200.612 71.6276L200.71 71.8731C200.808 72.0205 200.923 72.1514 201.07 72.2333L201.316 72.3315C201.496 72.3806 201.676 72.3806 201.856 72.3315L202.707 72.1678C202.838 72.1351 202.953 72.0696 203.051 71.9877C203.166 71.9222 203.247 71.824 203.313 71.6931C203.395 71.5785 203.428 71.4475 203.428 71.3165C203.46 71.1856 203.444 71.0382 203.411 70.9073L203.313 70.6617C203.215 70.5144 203.1 70.3834 202.953 70.3016L202.707 70.2033C202.527 70.1542 202.347 70.1542 202.167 70.2033Z" fill="#2E302D"/>
<path d="M199.433 73.0846C202.052 75.5075 204.901 77.652 207.962 79.5019C209.092 80.1894 210.123 78.4214 208.993 77.7338C206.08 75.9822 203.378 73.9523 200.89 71.644C199.924 70.7436 198.467 72.2006 199.45 73.0846H199.433Z" fill="#2E302D"/>
<path d="M200.579 72.7902C201.889 72.7902 201.905 70.7439 200.579 70.7439C199.253 70.7439 199.253 72.7902 200.579 72.7902Z" fill="#2E302D"/>
<path d="M206.161 47.0718C205.539 44.338 204.524 41.555 202.494 39.6724C200.464 37.7898 197.158 37.1349 194.964 38.8211C193.032 40.2944 192.492 42.9792 192.083 45.4348C191.608 48.316 191.133 51.1972 190.675 54.0784C189.873 59.0223 189.087 64.2773 191.002 68.8937C193.474 74.8199 200.432 73.8704 203.951 69.5977C208.208 64.4246 207.52 53.0634 206.178 47.0882L206.161 47.0718Z" fill="#E5DBCC"/>
<path d="M153.858 478.337C186.32 470.315 217.703 457.497 246.793 440.406C252.015 437.345 257.663 433.449 258.858 427.31C265.848 437.116 272.904 447.004 281.761 454.976C290.617 462.948 301.569 468.94 313.241 469.513L313.47 658.609L314.616 785.218C316.041 800.148 317.465 816.273 318.905 831.187C319.2 834.215 319.462 837.375 318.398 840.207C317.35 842.99 315.124 845.118 312.783 846.853C297.575 858.166 277.193 856.856 258.596 855.055C255.83 854.793 252.719 854.318 251.082 851.961C249.904 850.259 249.838 847.983 249.822 845.871C249.347 786.676 249.674 727.463 250.788 668.284C251.279 642.746 251.655 617.159 256.059 592.046C259.529 572.238 250.002 551.971 252.146 531.95C258.023 561.515 252.457 592.407 250.395 622.528C247.825 660.197 248.037 697.996 248.25 735.747C248.283 742.426 248.332 749.187 249.871 755.686C257.581 788.1 247.497 819.842 246.81 853.238C246.76 855.268 246.711 857.38 245.811 859.181C243.535 863.764 237.478 864.043 232.551 863.699C219.553 862.782 206.554 861.865 193.556 860.932C186.042 860.392 178.086 859.721 171.931 855.17C173.011 854.089 174.108 852.992 175.189 851.912L175.156 819.695C172.651 759.861 169.884 700.043 166.872 640.225C166.496 642.075 166.119 643.925 165.759 645.791C167.396 633.333 164.318 620.777 161.961 608.45C156.788 581.291 154.349 553.576 154.693 525.893C154.922 527.939 155.151 529.969 155.38 532.016C153.514 513.844 153.498 496.623 153.809 478.353L153.858 478.337Z" fill="#CCC9E3"/>
<path d="M63.3285 408.435C60.7747 409.286 58.1391 410.187 56.1255 412.053C54.1938 413.854 53.0151 416.358 51.5909 418.601C46.8762 426.017 38.9036 431.19 35.9733 439.572C35.2858 441.552 34.8438 443.762 33.4523 445.301C33.0103 445.792 32.3228 446.218 31.7498 445.94C31.1768 445.661 29.9163 444.286 30.5384 444.483C29.709 443.326 29.4034 441.934 29.6217 440.308C30.1946 436.068 29.6052 431.861 31.7006 428.178C33.7961 424.494 36.3499 420.696 36.1699 416.424C35.0567 416.276 33.7797 416.178 32.6665 416.014C28.5575 423.463 23.3681 430.24 17.3274 436.068C16.5743 436.789 15.7558 437.542 14.7572 437.738C13.7586 437.935 12.5308 437.394 12.3344 436.347C12.1871 435.561 12.629 434.808 13.0546 434.153C14.6425 431.632 16.2305 429.127 17.8185 426.606C13.1529 430.306 7.96344 433.842 2.18465 434.759C1.85724 434.808 1.52978 434.857 1.21874 434.759C0.43296 434.546 0.00737429 433.629 0.0401153 432.778C0.0892269 431.272 1.186 430.077 2.23371 429.062C5.62241 425.804 9.30581 422.874 13.2184 420.303C9.38766 420.958 5.36049 420.565 1.52979 419.894C1.12053 419.829 0.694872 419.731 0.383832 419.452C-0.64751 418.503 0.596725 416.8 1.79177 416.113C9.19125 411.873 18.8171 412.986 25.6763 407.846C33.0103 402.378 40.4589 397.041 47.8911 391.721C49.5282 390.542 51.4926 389.314 53.3916 389.936C54.2265 389.772 55.1433 389.592 55.9782 389.445C55.0778 392.195 56.9768 394.995 58.5483 397.401C60.6929 400.724 62.1826 404.604 63.3449 408.435H63.3285Z" fill="#F7EDDA"/>
<path d="M70.7938 414.639C63.0341 410.743 55.5528 406.192 48.4807 401.052C47.1875 400.119 45.8942 399.153 44.781 397.974C41.867 394.896 40.3609 390.427 40.7866 386.122C41.3595 384.927 43.1767 385.189 44.028 386.171C44.8793 387.153 45.1248 388.545 45.6814 389.756C46.2871 391.082 47.2693 392.195 48.2515 393.243C52.295 397.532 56.8297 401.314 61.7081 404.522C64.5239 406.356 76.769 410.448 70.7938 414.639Z" fill="#FCFAEC"/>
<path d="M316.597 420.074C316.123 438.442 325.536 456.531 322.212 474.571C317.514 474.931 312.881 473.524 308.363 472.116C302.044 470.151 295.725 468.17 289.406 466.206C284.02 464.536 278.519 462.785 273.985 459.314C270.58 456.695 267.895 453.224 265.243 449.786C262.034 445.628 258.842 441.47 255.634 437.312C242.226 461.884 213.496 470.97 187.319 478.009C173.437 481.742 159.571 485.474 145.689 489.223C144.199 489.632 142.464 489.976 141.236 489.026C140.32 488.306 139.943 487.062 139.698 485.883C137.602 475.897 140.189 465.568 142.53 455.631C151.713 416.62 157.312 376.692 159.228 336.568C129.646 361.107 102.553 388.413 74.8211 415.212C61.5283 408.287 46.3528 398.989 41.3598 384.353C40.9996 383.322 40.7049 382.209 40.9014 381.145C41.1469 379.786 42.1292 378.722 43.0623 377.756C65.2607 354.641 87.4427 331.526 109.641 308.411C110.46 307.543 111.344 306.577 111.426 305.366C111.475 304.531 111.131 303.712 111.278 302.894C111.442 301.928 112.195 301.208 112.915 300.585C116.32 297.59 119.742 294.61 123.147 291.614C122.574 293.055 121.985 294.496 121.412 295.936C119.202 285.737 127.943 269.711 130.481 259.594C133.804 246.366 130.841 232.026 134.541 218.913C137.095 209.827 137.406 200.267 138.928 190.936C139.386 188.104 139.861 185.239 140.991 182.619C142.448 179.247 144.92 176.464 147.506 173.943C160.865 160.912 178.708 153.054 196.945 152.17C218.456 151.139 240.098 142.937 261.625 142.561C264.359 142.512 267.109 142.463 269.794 143.036C272.593 143.625 275.213 144.853 277.815 146.064C282.858 148.421 287.916 150.795 292.958 153.153C311.326 161.763 329.35 176.431 334.965 196.665C336.815 203.345 336.995 210.4 337.06 217.341C337.224 234.35 336.831 251.359 335.865 268.352C334.932 284.641 341.382 299.603 344.689 315.564C352.4 352.693 340.253 391.294 316.63 420.156L316.597 420.074Z" fill="#5A5A82"/>
<path d="M182.228 51.2951C183.538 51.2951 183.554 49.2488 182.228 49.2488C180.902 49.2488 180.902 51.2951 182.228 51.2951Z" fill="#4A4744"/>
<path d="M180.181 44.1411L179.706 45.2706C181.327 45.8764 182.931 46.4821 184.552 47.0714C185.043 47.0387 185.272 46.4002 185.076 45.9255C184.879 45.4507 184.454 45.1397 184.028 44.8614C183.308 44.3703 182.538 43.8628 181.687 43.6991C180.836 43.5354 179.854 43.8137 179.477 44.5667" fill="#35342A"/>
<path d="M197.681 64.752C200.104 62.9185 201.889 60.1846 202.625 57.1561C203.133 55.0934 202.707 52.2613 200.71 51.8684C199.286 52.7197 200.432 55.0443 200.088 56.7305C199.777 58.2038 198.336 59.0223 197.19 59.9063C196.044 60.7903 194.997 62.4438 195.782 63.7043C196.519 63.999 197.272 64.2936 198.009 64.5883" fill="#DDD0BD"/>
<path d="M188.267 47.7923C187.973 59.2189 184.404 70.3836 177.921 79.813C177.168 80.8935 178.953 81.9248 179.689 80.8444C186.369 71.1203 190.019 59.5627 190.314 47.7923C190.347 46.4826 188.3 46.4826 188.267 47.7923Z" fill="#2E302D"/>
<path d="M182.948 73.052C181.655 72.9046 180.296 73.2484 179.199 73.936C178.741 74.2307 178.528 74.8527 178.839 75.3439C179.133 75.8022 179.756 76.015 180.247 75.704C180.476 75.5567 180.721 75.4257 180.983 75.3111L180.738 75.4093C181.147 75.2293 181.573 75.1147 182.015 75.0655L181.736 75.0983C182.146 75.0492 182.539 75.0492 182.948 75.0983C183.193 75.131 183.504 74.9673 183.668 74.8036C183.848 74.6235 183.979 74.3289 183.963 74.0833C183.946 73.8378 183.865 73.5431 183.668 73.363C183.455 73.1666 183.226 73.1011 182.948 73.0683V73.052Z" fill="#2E302D"/>
<path d="M181.474 75.6546C182.718 75.098 183.766 74.0666 184.372 72.8552C184.617 72.3805 184.519 71.7256 184.012 71.4473C183.504 71.169 182.915 71.3328 182.604 71.8075C182.538 71.9221 182.473 72.0203 182.391 72.1185C182.293 72.2495 182.424 72.1185 182.407 72.0858C182.407 72.1022 182.309 72.2168 182.293 72.2331C182.146 72.4132 181.965 72.5769 181.785 72.7406C181.736 72.7897 181.687 72.8225 181.638 72.8552C181.622 72.8716 181.474 72.9698 181.589 72.888C181.72 72.8061 181.54 72.9207 181.507 72.9371C181.458 72.9698 181.409 73.0025 181.36 73.0353C181.163 73.1663 180.951 73.2808 180.738 73.3791C180.705 73.3791 180.623 73.4118 180.607 73.4445C180.721 73.3954 180.754 73.3791 180.672 73.4118C180.656 73.4118 180.623 73.4282 180.607 73.4445C180.509 73.4773 180.394 73.5264 180.296 73.5591C180.067 73.6246 179.837 73.6737 179.608 73.7228C179.477 73.7556 179.821 73.7065 179.624 73.7228C179.559 73.7228 179.51 73.7228 179.444 73.7228C179.33 73.7228 179.232 73.7228 179.117 73.7228C179.002 73.7228 178.871 73.7228 178.757 73.7228C178.708 73.7228 178.659 73.7065 178.609 73.7228C178.74 73.7392 178.773 73.7392 178.691 73.7228C178.659 73.7228 178.626 73.7228 178.577 73.7065V75.6873C180.181 75.3599 181.736 74.7542 183.161 73.9357C183.619 73.6737 183.832 73.0025 183.521 72.5278C183.21 72.0531 182.62 71.873 182.113 72.1677C181.785 72.3477 181.458 72.5278 181.114 72.6915C180.951 72.7734 180.77 72.8552 180.607 72.9207C180.394 73.0189 180.705 72.888 180.509 72.9534C180.41 72.9862 180.312 73.0353 180.197 73.068C179.494 73.33 178.757 73.5428 178.004 73.6901C177.578 73.772 177.234 74.2467 177.251 74.6723C177.267 75.098 177.545 75.5727 178.004 75.6546C180.476 76.0966 182.98 74.9506 184.306 72.8061L182.538 71.7748C182.407 72.0367 182.244 72.2822 182.08 72.5278C181.965 72.6915 182.146 72.4459 182.08 72.5278C182.031 72.5769 181.998 72.626 181.949 72.6751C181.851 72.7897 181.753 72.888 181.638 72.9862C181.54 73.0844 181.442 73.1663 181.343 73.2481C181.311 73.2808 181.278 73.2972 181.245 73.33L181.327 73.2645C181.327 73.2645 181.163 73.3791 181.131 73.3954C180.885 73.5591 180.639 73.6901 180.378 73.8047C179.886 74.0175 179.739 74.7706 180.017 75.2126C180.345 75.72 180.885 75.8183 181.425 75.5727L181.474 75.6546Z" fill="#2E302D"/>
<path d="M179.429 73.6409H178.021C177.759 73.6409 177.48 73.7555 177.3 73.9355C177.202 74.0338 177.137 74.132 177.088 74.263C177.022 74.3775 176.989 74.5085 177.006 74.6558C177.006 74.9178 177.104 75.1961 177.3 75.3761C177.497 75.5562 177.742 75.6708 178.021 75.6708H179.429C179.69 75.6708 179.969 75.5562 180.149 75.3761C180.247 75.2779 180.313 75.1797 180.362 75.0487C180.427 74.9341 180.46 74.8032 180.444 74.6558C180.444 74.3939 180.345 74.1156 180.149 73.9355C179.952 73.7555 179.707 73.6409 179.429 73.6409Z" fill="#2E302D"/>
<path d="M183.782 73.5263L184.224 72.6423C184.306 72.5277 184.339 72.3967 184.339 72.2658C184.372 72.1348 184.355 71.9875 184.323 71.8565C184.29 71.7255 184.224 71.6109 184.142 71.5127C184.077 71.3981 183.979 71.3163 183.848 71.2508L183.602 71.1526C183.422 71.1034 183.242 71.1034 183.062 71.1526L182.816 71.2508C182.669 71.349 182.538 71.4636 182.456 71.6109L182.014 72.4949C181.932 72.6095 181.9 72.7405 181.9 72.8715C181.867 73.0024 181.883 73.1498 181.916 73.2807C181.949 73.4117 182.014 73.5263 182.096 73.6245C182.162 73.7391 182.26 73.821 182.391 73.8864L182.636 73.9847C182.816 74.0338 182.997 74.0338 183.177 73.9847L183.422 73.8864C183.569 73.7882 183.7 73.6736 183.782 73.5263Z" fill="#2E302D"/>
<path d="M178.724 73.3464H177.169C176.907 73.3464 176.629 73.461 176.448 73.6411C176.268 73.8212 176.137 74.1158 176.154 74.3614C176.17 74.607 176.252 74.9016 176.448 75.0817C176.645 75.2618 176.89 75.3764 177.169 75.3764H178.724C178.986 75.3764 179.264 75.2618 179.444 75.0817C179.624 74.9016 179.755 74.607 179.739 74.3614C179.723 74.1158 179.641 73.8212 179.444 73.6411C179.248 73.461 179.002 73.3464 178.724 73.3464Z" fill="#2E302D"/>
<path d="M176.809 75.1964C180.133 76.064 183.849 74.2469 185.273 71.1365C185.502 70.629 185.42 70.0397 184.913 69.7286C184.471 69.4667 183.751 69.5977 183.505 70.0888C182.916 71.3657 182.097 72.2006 180.853 72.8227C180.771 72.8554 180.706 72.8881 180.624 72.9373C180.46 73.0191 180.64 72.9373 180.542 72.97C180.395 73.0355 180.231 73.0846 180.067 73.1337C179.887 73.1828 179.723 73.2319 179.543 73.2647C179.461 73.281 179.38 73.2974 179.298 73.3138C179.265 73.3138 179.036 73.3465 179.232 73.3138C178.463 73.3956 177.955 73.3629 177.35 73.1992C176.81 73.0519 176.237 73.3793 176.089 73.9195C175.942 74.4597 176.269 75.0327 176.809 75.18V75.1964Z" fill="#2E302D"/>
<path d="M190.412 48.3814L190.543 46.6134C190.56 46.3678 190.412 46.0568 190.249 45.8931C190.085 45.7294 189.774 45.582 189.528 45.5984C189.283 45.6148 188.988 45.6966 188.808 45.8931L188.644 46.1059C188.546 46.2696 188.513 46.4333 188.497 46.6298L188.366 48.3978C188.35 48.6433 188.497 48.9544 188.661 49.1181C188.824 49.2818 189.135 49.4291 189.381 49.4127C189.626 49.3964 189.921 49.3145 190.101 49.1181L190.265 48.9053C190.363 48.7416 190.396 48.5778 190.412 48.3814Z" fill="#2E302D"/>
<path d="M188.907 44.5836L188.318 47.2357C188.253 47.4976 188.285 47.7922 188.416 48.0214C188.547 48.2343 188.776 48.4307 189.022 48.4962C189.546 48.6108 190.151 48.3325 190.282 47.7759L190.872 45.1239C190.937 44.8619 190.905 44.5673 190.774 44.3381C190.643 44.1253 190.413 43.9288 190.168 43.8633C189.644 43.7487 189.038 44.027 188.907 44.5836Z" fill="#2E302D"/>
<path d="M189.595 63.4422C191.575 57.0413 192.558 50.3622 192.492 43.6502C192.492 42.3406 190.429 42.3242 190.446 43.6502C190.495 50.1821 189.545 56.6484 187.614 62.8856C187.221 64.1461 189.202 64.6864 189.595 63.4258V63.4422Z" fill="#2E302D"/>
<path d="M188.711 57.5649C187.057 64.8662 188.809 72.6585 193.491 78.5192C194.309 79.5505 195.75 78.0935 194.931 77.0786C190.74 71.8236 189.218 64.6533 190.675 58.1215C190.97 56.8446 188.989 56.288 188.694 57.5813L188.711 57.5649Z" fill="#2E302D"/>
<path d="M190.347 73.1663C194.653 77.2262 197.992 82.252 200.104 87.7852C200.562 88.9966 202.543 88.4728 202.085 87.245C199.842 81.3843 196.371 76.0476 191.804 71.7257C190.854 70.8254 189.398 72.266 190.363 73.1663H190.347Z" fill="#2E302D"/>
<path d="M190.527 72.1021C192.164 74.5249 193.605 77.0951 194.735 79.7962C194.947 80.3037 195.406 80.6639 195.995 80.5165C196.47 80.3856 196.928 79.7635 196.715 79.256C195.504 76.3911 194.047 73.6573 192.295 71.0871C191.984 70.6287 191.395 70.4323 190.887 70.727C190.429 70.9889 190.216 71.6601 190.527 72.1348V72.1021Z" fill="#2E302D"/>
<path d="M190.003 51.4592C191.526 59.7263 184.208 69.8597 191.248 76.9808C192.181 77.914 193.621 76.4734 192.688 75.5402C189.643 72.4626 189.938 67.7806 190.707 63.8517C191.542 59.5462 192.786 55.339 191.968 50.919C191.722 49.6257 189.758 50.1659 189.987 51.4592H190.003Z" fill="#2E302D"/>
<path d="M191.559 53.3415C191.755 52.0646 191.952 50.8041 192.148 49.5272C192.197 49.2489 192.197 48.9869 192.05 48.7414C191.919 48.5286 191.69 48.3321 191.444 48.2666C190.953 48.152 190.266 48.414 190.184 48.9869C189.987 50.2638 189.791 51.5244 189.594 52.8013C189.545 53.0796 189.545 53.3415 189.693 53.587C189.824 53.7999 190.053 53.9963 190.298 54.0618C190.789 54.1764 191.477 53.9145 191.559 53.3415Z" fill="#2E302D"/>
<path d="M190.577 41.5384C190.446 46.0566 190.315 50.5749 190.184 55.0932C190.151 56.4028 192.197 56.4028 192.23 55.0932C192.361 50.5749 192.492 46.0566 192.623 41.5384C192.656 40.2287 190.609 40.2287 190.577 41.5384Z" fill="#2E302D"/>
</svg>
