<svg width="255" height="816" viewBox="0 0 255 816" fill="none" xmlns="http://www.w3.org/2000/svg">
<path d="M68.2675 799.625C68.5437 799.463 68.5761 800.031 68.235 799.982C67.8939 799.934 67.7801 799.625 67.7477 799.365C66.3508 788.726 66.9356 777.908 69.4857 767.367C74.1474 766.587 77.8994 770.014 82.1388 771.606C88.3436 773.945 96.8873 771.736 100.006 767.009C101.5 767.204 103.336 766.62 104.245 767.529C104.18 769.819 105.285 772.012 105.902 774.237C106.519 776.479 106.633 778.769 106.747 781.059C107.055 787.313 107.348 793.55 107.656 799.804C108.631 799.804 109.573 799.804 110.564 799.804C111.1 802.045 111.36 804.319 111.327 806.593C111.327 807.649 111.23 808.737 110.629 809.679C109.443 811.596 106.584 812.522 103.921 813.155C92.4206 815.852 79.8812 815.868 68.4624 813.155C67.5853 812.944 66.6595 812.701 66.0585 812.181C65.2626 811.499 65.1813 810.492 65.1326 809.566C65.0676 808.006 64.9864 806.431 64.9214 804.871C64.8564 803.54 64.824 802.159 65.5549 800.941C66.2858 799.722 66.562 799.284 68.2675 799.609V799.625Z" fill="#4F4231"/>
<path d="M152.86 795.515C153.12 795.369 153.152 795.905 152.828 795.857C152.503 795.808 152.405 795.515 152.373 795.272C151.268 785.218 152.048 775.066 154.663 765.174C159.081 764.54 162.525 767.838 166.488 769.429C172.287 771.752 180.376 769.852 183.413 765.466C184.81 765.677 186.548 765.174 187.392 766.051C187.279 768.211 188.286 770.29 188.822 772.402C189.358 774.513 189.407 776.69 189.472 778.834C189.634 784.73 189.78 790.61 189.942 796.506C190.868 796.522 191.745 796.539 192.671 796.555C193.142 798.667 193.337 800.827 193.256 802.971C193.224 803.962 193.126 804.985 192.541 805.862C191.388 807.633 188.676 808.461 186.142 808.997C175.259 811.303 163.45 811.06 152.746 808.282C151.918 808.071 151.057 807.828 150.505 807.324C149.758 806.658 149.709 805.716 149.693 804.839C149.66 803.361 149.628 801.883 149.595 800.405C149.563 799.154 149.547 797.838 150.278 796.717C151.008 795.597 151.252 795.174 152.86 795.515Z" fill="#4F4231"/>
<path d="M201.507 765.044C211.805 743.327 213.316 718.605 214.648 694.598C215.639 676.78 216.63 658.945 217.62 641.127C217.815 637.651 218.01 634.159 218.205 630.683C221.064 579.323 223.923 527.963 225.677 476.555C217.669 475.06 204.983 471.73 196.976 470.236C193.159 469.521 189.13 468.823 185.459 470.106C182.032 471.308 179.433 474.086 176.429 476.116C168.518 481.476 158.172 481.574 148.783 479.852C139.395 478.13 130.299 474.8 120.797 473.956C108.566 472.867 96.4001 475.97 84.1367 476.684C71.8896 477.399 58.343 475.125 50.319 465.769C45.1213 467.67 44.7802 473.923 45.8848 479.365C48.9709 494.6 52.0407 509.82 55.1268 525.056C61.559 556.892 52.9992 590.222 51.4236 622.675C50.7739 635.913 50.1404 649.184 50.7901 662.421C52.3332 694.241 61.2831 725.915 57.336 757.523C57.0437 759.927 57.7582 763.988 57.7744 766.408C78.5003 770.648 99.9248 771.346 120.878 768.487C122.291 760.203 116.46 751.611 113.634 743.701C111.213 736.879 110.986 729.488 110.775 722.244C110.32 705.887 109.865 689.531 109.427 673.174C108.761 648.794 108.68 624.316 105.447 600.146C102.572 578.657 110.531 556.161 104.765 535.272C102.231 526.095 98.0567 516.739 100.038 507.416C117.613 589.28 103.709 676.975 123.997 758.206C124.565 760.463 125.215 762.835 126.888 764.427C128.788 766.246 131.582 766.684 134.197 766.993C157.749 769.803 178.037 768.52 201.491 765.011L201.507 765.044Z" fill="#ADBE70"/>
<path d="M165.205 171.417C148.085 164.091 129.552 159.836 110.84 158.926C98.7877 158.341 85.1924 159.787 77.4445 168.688C73.0102 173.772 71.2236 180.545 67.2279 185.954C59.7075 196.155 46.0472 199.761 34.1575 204.812C22.2677 209.864 9.92305 219.528 11.125 231.97C11.6123 236.973 14.2924 241.57 15.0559 246.556C15.7218 250.958 14.8609 255.425 14.0325 259.794C8.76987 287.326 4.433 315.02 1.00575 342.828C0.144882 349.828 -0.651016 356.959 0.810852 363.878C4.61168 381.859 25.5975 394.593 44.0981 390.143C44.228 388.113 44.358 386.066 44.4879 384.036C47.9476 396.64 50.4652 415.531 47.0379 428.151C44.9589 435.769 40.4596 442.721 39.3063 450.534C37.5846 462.277 44.6503 474.719 55.8742 479.657C66.8381 484.481 79.5562 482.305 91.6247 482.289C114.121 482.256 136.569 490.085 158.724 486.366C176.104 483.458 195.173 473.891 209.938 483.182C213.69 485.553 219.164 488.818 221.779 485.31C222.737 484.027 222.704 482.321 222.623 480.746C222.12 470.236 221.632 459.711 221.129 449.202C220.024 425.747 204.317 405.265 196.017 383.191C180.911 343.071 165.611 301.928 165.838 259.274C165.952 239.328 171.15 218.261 180.067 200.264C170.208 196.252 163.792 181.617 165.221 171.401L165.205 171.417Z" fill="#F06F35"/>
<path d="M177.078 198.266C190.397 205.819 204.058 213.68 213.089 225.197C219.846 233.805 223.565 243.957 227.204 253.946C239.5 287.683 251.893 321.825 254.687 357.202C256.392 378.87 250.691 402.828 248.254 424.431C245.818 446.034 240.523 468.157 226.262 485.797C213.527 483.019 199.932 481.427 189.796 474.037C193.126 454.351 195.53 434.437 197.366 414.604C200.127 384.718 182.146 357.283 167.04 330.466C158.009 314.451 161.534 296.194 161.534 278.278C161.55 252.273 163.483 225.651 176.364 202.31C176.883 201.368 177.793 200.264 178.946 200.524C180.1 200.784 177.549 199.224 177.062 198.266H177.078Z" fill="#E56D36"/>
<path d="M193.207 467.93C188.221 468.71 186.873 474.395 186.629 478.861C186.142 488.103 185.654 497.362 185.167 506.604C184.988 509.934 184.826 513.345 185.882 516.561C187.717 522.132 193.045 526.372 199.006 528.776C204.967 531.179 211.529 532.024 218.01 532.853C220.966 533.226 224.361 533.486 226.57 531.716C228.552 530.124 228.811 527.476 228.941 525.105C229.445 515.798 229.949 506.507 230.452 497.199C231.167 484.108 227.155 484.53 217.117 479.527C214.226 478.098 195.562 467.556 193.207 467.93Z" fill="#FCFAEC" stroke="#F9FCF8" stroke-miterlimit="10"/>
<path d="M89.3345 143.3C89.4807 142.732 89.5456 142.147 89.5131 141.546V139.581C89.5131 139.434 89.4806 139.321 89.4806 139.175C89.8542 139.272 90.2279 139.369 90.6015 139.434C95.4581 140.344 100.575 138.752 104.603 136.17C108.631 133.587 111.782 130.062 114.868 126.603C122.681 117.831 124.793 105.812 126.027 94.6529C131.858 94.6529 137.202 89.7963 136.666 84.6148C136.439 82.3895 135.415 79.8719 136.958 78.1339C139.427 75.3564 142.497 72.4652 140.613 69.3303C141.734 65.432 138.063 62.2484 137.819 58.2202C137.527 53.2661 142.692 48.7181 141.377 43.8777C142.936 42.8869 144.836 44.6574 145.6 46.2167C147.5 50.0663 148.621 54.192 149.368 58.3339C149.823 60.819 150.148 63.3854 151.431 65.6432C154.533 71.117 162.736 74.1057 163.402 80.1968C161.29 83.5915 159.52 86.3365 159.049 90.2023C158.854 91.7779 159.244 93.3535 159.634 94.8965C161.323 101.621 163.012 108.346 164.701 115.07C165.416 117.929 166.147 120.853 165.936 123.776C165.725 126.7 164.458 129.705 161.859 131.508C158.237 134.009 151.999 134.48 147.451 133.944C148.085 147.036 148.718 160.112 149.368 173.203C144.999 170.426 139.671 169.289 134.62 167.697C122.811 163.961 110.012 163.782 97.4884 163.62C92.7943 163.571 87.8888 163.588 83.5845 165.114C86.1346 158.309 87.6128 151.259 89.1721 144.161C89.2371 143.852 89.2858 143.544 89.3182 143.251L89.3345 143.3Z" fill="#F7EDDA"/>
<path d="M147.938 56.3359C146.477 54.338 144.04 53.1035 141.571 53.0873C140.11 57.9764 140.645 63.2066 141.198 68.2743C141.587 71.8478 141.961 75.4212 142.351 79.0109C142.53 80.7488 142.514 82.8929 140.97 83.705C138.778 84.8583 136.715 82.0645 135.61 79.8393C133.921 76.412 131.712 73.2447 129.081 70.4834C128.415 69.7849 127.619 69.054 126.644 69.0703C125.783 69.0703 125.052 69.6712 124.484 70.3047C121.69 73.4558 121.414 78.1662 122.323 82.2919C123.233 86.4014 125.15 90.2347 126.287 94.2954C130.055 107.809 124.76 122.087 118.799 134.805C112.887 136.689 108.111 144.128 101.939 144.746C96.2863 145.314 91.2511 141.335 87.3528 137.209C82.5287 132.092 78.3543 126.359 74.992 120.17C74.0824 118.513 73.2377 116.808 72.0357 115.362C71.0124 114.128 69.7779 113.105 68.576 112.065C63.4919 107.663 58.879 102.725 54.8183 97.349C50.7576 91.9727 47.1191 85.2806 48.8734 78.7672C45.1375 78.215 42.1001 74.4791 41.5641 70.727C41.0281 66.9912 42.1001 63.2228 43.1559 59.5844C43.9355 56.9368 41.4017 54.4192 40.7682 51.7229C39.9886 48.4094 42.1326 44.6897 45.3811 43.6989C46.4531 43.3741 47.9962 42.5782 47.3952 41.6198C50.66 38.9398 53.9086 35.9348 57.1734 33.2548C58.749 31.9553 60.3408 30.6397 61.4128 28.9017C62.0625 27.8621 62.4848 26.7089 63.0371 25.6206C64.6451 22.437 67.3091 19.8057 70.509 18.2301C76.7787 15.144 82.0901 10.3199 87.97 6.55153C91.446 4.32626 94.9707 2.08475 98.9177 0.866535C102.865 -0.351679 107.332 -0.432895 110.937 1.58122C112.887 2.66949 114.511 4.31002 116.492 5.33332C118.474 6.35662 121.187 6.58402 122.746 4.97597C127.797 4.14759 132.914 5.78811 137.819 7.20124C140.191 7.88344 142.643 8.93923 144.024 10.9858C146.347 14.3806 144.95 19.1397 146.509 22.9568C146.704 23.4278 146.948 23.8989 147.37 24.1913C147.857 24.5324 148.475 24.5811 149.059 24.711C151.723 25.2958 153.542 27.7484 154.728 30.2174C157.847 36.6658 158.204 44.3974 155.719 51.1057C155.118 52.7462 154.306 54.3705 152.958 55.475C151.61 56.5795 148.946 57.7003 147.906 56.2871L147.938 56.3359Z" fill="#35342A"/>
<path d="M134.148 70.7432C132.768 68.7941 131.111 66.9261 128.837 65.8541C126.563 64.7821 123.558 64.6846 121.56 66.1302C119.254 67.8033 118.961 70.8082 118.929 73.4558C118.896 77.9063 119.124 82.4218 120.602 86.6612C122.064 90.9168 124.89 94.9288 129.113 97.2678C131.907 98.8271 136.016 99.3956 138.128 97.1378C139.379 95.8059 139.508 93.9218 139.573 92.1675C139.866 84.241 139.07 77.6464 134.165 70.727L134.148 70.7432Z" fill="#EFE1CA"/>
<path d="M72.1007 174.405C73.6113 168.509 75.138 162.613 76.6486 156.733C77.0709 155.092 77.5421 153.354 78.7928 152.25C79.5887 151.535 80.5957 151.162 81.6028 150.82C98.1055 145.152 115.875 145.85 132.686 149.667C152.145 154.085 162.427 156.522 165.968 175.964C165.903 176.906 165.854 177.849 165.822 178.791C149.563 181.666 133.011 176.695 116.525 175.64C103.401 174.811 90.2277 176.484 77.3146 178.969C75.4142 179.343 72.9453 179.473 72.052 177.702C71.5484 176.712 71.8084 175.493 72.1007 174.405Z" fill="#FCFAEC"/>
<path d="M150.879 62.8006L150.846 63.7914C149.547 63.6127 148.247 63.4503 146.948 63.2716C146.623 63.0767 146.672 62.5244 146.948 62.2483C147.224 61.9722 147.63 61.9234 148.004 61.8747C148.653 61.7935 149.336 61.7123 149.969 61.9072C150.603 62.1021 151.187 62.6706 151.204 63.3691" fill="#35342A"/>
<path d="M124.614 73.2124C124.386 73.1799 124.159 73.1637 123.948 73.2611C123.623 73.4073 123.46 73.7972 123.395 74.1545C123.135 75.7625 124.5 77.4518 126.14 77.5168C126.579 77.533 127.05 77.468 127.407 77.6954C127.7 77.8904 127.846 78.2477 127.976 78.5726C128.723 80.5704 132.361 93.6946 133.417 84.8585C134.018 79.8233 129.73 73.8296 124.614 73.2124Z" fill="#CCC2B2"/>
<path d="M162.135 81.3823C161.534 82.1782 160.933 82.9741 160.332 83.77C160.251 83.8837 160.153 83.9974 160.023 84.0624C159.731 84.1924 159.358 84.0299 159.211 83.7863C159.065 83.5426 159.146 83.2503 159.26 82.9904C159.682 82.0321 160.868 81.3336 162.103 81.3174" fill="#CCC2B2"/>
<path d="M150.294 67.3809C148.994 67.3809 148.978 65.3506 150.294 65.3506C151.609 65.3506 151.609 67.3809 150.294 67.3809Z" fill="#4A4744"/>
<path d="M161.923 104.025L161.615 102.742C160.819 102.806 160.088 102.547 159.39 102.189C159.13 102.043 158.805 101.881 158.545 102.027C158.301 102.173 158.285 102.53 158.415 102.758C158.545 102.985 158.805 103.148 159.065 103.261C159.893 103.667 160.787 103.943 161.696 104.073C161.875 104.106 161.988 104.187 161.94 104.025H161.923Z" fill="#A06E79"/>
</svg>
