<svg width="1052" height="576" viewBox="0 0 1052 576" fill="none" xmlns="http://www.w3.org/2000/svg">
<path d="M1043.22 349.831C1043.05 345.199 1042.64 341.001 1042.47 336.395C1042.35 333.144 1042.24 329.789 1042.97 326.722C1043.69 323.656 1045.48 320.932 1047.61 320.879C1047.95 320.879 1048.3 320.656 1048.65 320.656C1049.51 330.499 1050.22 340.119 1050.09 350.029C1050.46 350.463 1050.25 351.634 1049.87 352.042C1049.49 352.45 1048.97 352.463 1048.51 352.45C1046.81 352.411 1044.93 352.253 1043.22 352.253V349.831Z" fill="#F06F35"/>
<path d="M1051.09 353.424L1021.53 354.214H1020.91L1020.76 371.243C1022.64 375.335 1017.4 380.323 1018.35 384.6C1024.87 386.64 1032.85 385.692 1038.35 382.218C1040.3 380.994 1042.42 379.994 1044.05 378.533C1047.55 375.375 1049.43 371.361 1050.38 367.308C1051.33 363.255 1051.39 359.135 1051.64 355.03C1051.64 354.832 1051.71 354.608 1051.96 354.569C1052.21 354.529 1051.29 353.516 1051.1 353.411H1051.09V353.424Z" fill="#F06F35"/>
<path d="M1020.98 354.122L1002.71 353.793C1002.54 360.267 1001.75 367.334 1002.29 373.783C1002.51 376.573 1002.93 379.481 1004.98 381.863C1007.04 384.245 1011.15 385.995 1014.95 385.219C1018.75 384.429 1019.74 381.389 1020.22 378.665C1021.62 370.756 1021.54 362.07 1020.97 354.108L1020.98 354.122Z" fill="#FEF0EF"/>
<path d="M660.156 483.287L59.4108 486.617L68.1902 397.181L660.183 397.352L660.156 483.287Z" fill="#FFE1A8"/>
<path d="M660.358 385.771L660.102 483.983L1041.91 484.984L1042.17 386.772L660.358 385.771Z" fill="#FFE1A8"/>
<path d="M661.202 59.5916L660.427 355.967L704.219 356.082L704.994 59.7064L661.202 59.5916Z" fill="#ADBE70"/>
<path d="M202.681 575.999C248.615 576.184 286.033 537.296 286.203 489.156L119.815 488.498C119.618 536.638 156.72 575.802 202.681 575.999Z" fill="#5A5A82"/>
<path d="M872.164 64.1144C883.663 67.2859 895.584 70.089 904.337 78.1693C916.389 89.3026 927.377 101.62 937.05 114.912C943.923 124.335 949.548 133.468 955.699 143.377C962.862 154.932 972.102 166.012 978.331 178.106C979.554 180.475 980.631 182.844 982.038 185.094C989.398 196.899 996.758 208.69 1004.12 220.495C1021.72 248.723 1036.09 279.096 1044.2 311.378C1044.79 313.733 1045.28 316.313 1046.77 318.221C1045.24 316.958 1041.47 320.116 1040.84 321.998C1037.38 332.236 1037.53 343.659 1041.29 353.793C1041.68 354.858 1041.21 355.319 1041.21 356.464C1019.85 357.017 997.809 357.24 976.452 356.188C951.73 354.964 926.233 356.477 901.472 356.398C882.191 357.477 862.149 357.017 842.855 356.253C817.884 355.24 792.886 355.332 767.901 354.924C748.595 355.819 729.209 355.385 709.955 353.7L710.638 352.898C708.588 352.898 704.5 353.569 702.463 353.556L703.226 57.9686L821.156 58.3371C838.781 58.3766 855.222 59.482 872.19 64.1538L872.164 64.1144Z" fill="#FFE1A8"/>
<path d="M236.905 489.907L171.401 489.341C171.243 511.752 185.779 530.031 203.877 530.203C221.974 530.36 236.76 512.331 236.905 489.92V489.907Z" fill="#CCC9E3"/>
<path d="M1.03626 0L0 396.339L660.294 398.07L661.33 1.73091L1.03626 0Z" fill="#ADBE70"/>
<path d="M737.252 237.629L732.179 210.19C729.656 196.596 729.235 183.344 727.816 169.592C726.318 154.853 726.712 140.758 725.963 125.966C725.7 120.637 726.173 114.149 726.147 108.819C726.12 103.489 727.001 97.804 730.51 93.777C735.268 88.3156 742.168 82.999 749.396 83.249L851.372 82.7094C866.289 82.7489 881.009 86.2232 895.295 90.5397C902.786 92.8032 909.515 98.3041 914.878 104.029C924.38 114.175 933.186 124.966 941.663 135.968C951.454 148.667 960.549 162.459 970.354 175.145C972.548 177.975 974.073 180.857 975.887 183.949C976.688 185.318 977.49 186.713 978.305 188.082C981.407 193.346 984.535 198.597 987.676 203.834C988.425 205.084 989.292 206.282 990.107 207.506C994.812 214.691 998.637 222.469 1001.46 230.575C1003.79 237.261 1005.47 244.341 1005.67 251.421C1005.76 255.224 1005.62 259.606 1002.63 261.949C999.452 264.462 995.509 265.055 991.448 265.041C986.874 265.041 982.3 264.633 977.74 264.62L951.467 264.554C940.638 259.698 929.703 254.724 918.873 249.881C903.798 243.13 886.91 240.235 870.455 238.748L836.034 238.656C830.934 238.708 825.861 239.616 820.814 240.314C818.12 240.116 815.715 240.511 813.021 240.498L742.312 240.314C740.301 240.537 737.633 239.629 737.279 237.629H737.252Z" fill="#5A5A82"/>
<path d="M767.823 295.441L786.748 276.583L786.525 276.359C789.561 273.556 791.072 267.673 789.18 263.989C787.3 260.304 783.134 257.988 779.007 258.053L725.936 257.553C724.438 256.79 721.796 257.896 720.351 258.711C718.905 259.527 717.735 260.83 716.658 262.12C715.212 263.91 713.805 265.923 713.7 268.213C713.345 275.556 711.44 283.4 714.239 290.19C715.37 292.927 717.38 295.81 720.338 295.994C733.783 296.783 746.847 298.573 760.318 298.389C763.144 298.363 766.048 297.626 767.836 295.441H767.823Z" fill="#ADBE70"/>
<path d="M743.337 258.053L775.511 258.132C776.76 258.132 777.298 259.962 777.443 261.186C777.601 262.357 777.719 263.515 777.824 264.699C777.956 266.226 778.021 267.858 777.272 269.187C776.523 270.516 774.644 271.319 773.421 270.411L741.458 270.648C739.46 270.134 738.474 267.66 738.79 265.607C739.105 263.554 740.406 261.817 741.655 260.199C742.194 259.501 742.523 257.764 743.364 258.067H743.35L743.337 258.053Z" fill="#5A5A82"/>
<path d="M821.629 398.563C827.583 398.642 833.497 399.063 839.425 399.734C844.8 399.497 850.083 401.037 855.235 402.577C856.931 403.077 858.626 403.603 860.296 404.182C865.04 405.867 869.588 407.578 873.925 410.157C880.365 414 887.159 416.961 893.021 421.619C896.425 424.343 899.014 427.949 901.564 431.502C902.142 432.305 902.484 433.279 902.97 434.161C904.626 437.056 906.125 440.03 907.715 442.965C909.489 446.281 910.133 450.558 911.763 453.953C913.471 457.507 913.787 461.218 914.891 465.008C915.693 467.745 916.337 470.548 916.547 473.391C916.783 476.431 915.811 479.418 914.365 482.116C913.879 483.05 912.867 483.669 911.842 483.735C910.817 483.8 909.121 483.458 908.99 482.405C907.465 469.666 902.274 457.375 895.229 446.663C886.292 433.134 873.241 422.369 858.245 416.224C851.096 413.289 843.105 411.552 835.403 410.749C825.033 410.354 814.177 410.341 804.32 413.592C792.939 417.355 781.964 421.896 772.567 429.318C756.48 442.03 747.241 462.744 744.796 483.116C742.746 484.445 739.802 484.208 737.909 482.655C736.017 481.103 735.294 478.299 736.188 476.023C735.636 474.022 736.188 471.535 736.963 469.587C739.25 463.731 741.563 457.888 743.903 452.045C746.571 445.452 749.37 439.227 752.761 432.99C752.577 432.042 753.76 431.489 754.312 430.673C754.68 430.134 754.811 429.463 755.021 428.857C755.626 427.015 756.835 425.462 758.031 423.935C759.687 421.856 761.33 419.751 762.986 417.671C764.037 416.329 765.141 414.96 766.6 414.065C769.807 412.105 772.58 408.762 775.721 406.683C778.14 405.09 780.794 403.893 783.436 402.682C784.764 402.077 786.209 401.498 787.629 401.208C794.358 399.826 801.14 398.431 808 398.3C812.416 398.208 817.253 397.984 821.642 398.523H821.629V398.563Z" fill="#ADBE70"/>
<path d="M910.538 492.55C910.653 448.484 873.499 412.663 827.552 412.543C781.606 412.422 744.265 448.047 744.15 492.114C744.035 536.18 781.188 572 827.135 572.121C873.082 572.241 910.422 536.616 910.538 492.55Z" fill="#5A5A82"/>
<path d="M859.755 492.943C859.804 474.359 845.533 459.256 827.88 459.209C810.227 459.163 795.877 474.191 795.828 492.776C795.78 511.36 810.051 526.463 827.704 526.51C845.357 526.556 859.707 511.528 859.755 492.943Z" fill="#CCC9E3"/>
<path d="M43.8242 50.0885L43.008 362.256L617.479 363.762L618.295 51.5944L43.8242 50.0885Z" fill="#ADBE70"/>
<path d="M660.406 354.2L1001.94 355.082L1001.9 369.019C1001.87 379.441 993.406 387.89 982.984 387.864L660.314 387.035L660.393 354.227L660.406 354.2Z" fill="#ADBE70"/>
<path d="M66.7347 165.164L77.4962 130.976L82.4378 130.989L93.0203 165.233L88.7621 165.221L85.8957 155.633L73.8043 155.602L70.8879 165.175L66.7347 165.164ZM75.0237 151.709L84.6967 151.735L79.9022 135.667L75.0237 151.709Z" fill="black"/>
<path d="M146.602 165.373L133.459 165.339L133.548 131.123L146.534 131.157C148.917 131.163 150.912 131.958 152.52 133.541C154.164 135.125 154.982 137.162 154.975 139.654C154.966 143.304 153.399 146.002 150.275 147.748C152.096 148.455 153.565 149.511 154.683 150.918C155.836 152.29 156.41 153.976 156.405 155.976C156.397 158.924 155.48 161.238 153.653 162.917C151.861 164.562 149.511 165.381 146.602 165.373ZM145.683 134.787L137.745 134.766L137.715 146.083L145.233 146.103C146.67 146.107 147.915 145.514 148.97 144.323C150.06 143.098 150.607 141.625 150.611 139.906C150.615 138.397 150.145 137.167 149.201 136.217C148.293 135.267 147.12 134.79 145.683 134.787ZM145.223 149.683L137.706 149.663L137.674 161.717L145.665 161.738C147.452 161.743 148.961 161.291 150.19 160.382C151.419 159.472 152.036 157.983 152.041 155.912C152.047 153.877 151.402 152.331 150.108 151.275C148.814 150.218 147.186 149.688 145.223 149.683Z" fill="black"/>
<path d="M220.798 142.985L216.903 144.764C216.455 141.71 215.375 139.286 213.662 137.492C211.985 135.697 209.954 134.797 207.571 134.791C204.732 134.784 202.433 136.006 200.675 138.458C198.916 140.91 198.031 144.153 198.021 148.189C198.01 152.33 198.877 155.684 200.623 158.25C202.369 160.782 204.661 162.051 207.5 162.058C209.778 162.064 211.743 161.262 213.394 159.652C215.081 158.043 216.173 155.87 216.671 153.134L220.344 155.617C219.424 158.844 217.823 161.401 215.54 163.29C213.257 165.144 210.574 166.067 207.489 166.059C203.354 166.048 200.029 164.408 197.514 161.137C195.034 157.832 193.801 153.512 193.815 148.178C193.829 142.949 195.084 138.741 197.58 135.554C200.112 132.368 203.446 130.779 207.582 130.79C210.911 130.799 213.747 131.894 216.09 134.076C218.467 136.258 220.036 139.228 220.798 142.985Z" fill="black"/>
<path d="M266.434 166.056C263.384 166.048 261.001 165.919 259.285 165.668L259.374 131.452C261.197 131.247 263.581 131.148 266.525 131.155C271.501 131.168 275.493 132.635 278.5 135.556C281.541 138.442 283.055 142.587 283.041 147.991C283.025 154.027 281.524 158.55 278.537 161.56C275.585 164.571 271.55 166.069 266.434 166.056ZM266.725 134.999C265.709 134.996 264.657 135.046 263.57 135.148L263.5 161.995C264.586 162.103 265.655 162.158 266.707 162.161C274.767 162.182 278.81 157.525 278.835 148.19C278.844 144.4 277.801 141.257 275.705 138.76C273.644 136.263 270.65 135.009 266.725 134.999Z" fill="black"/>
<path d="M322.697 165.835L322.787 131.619L343.868 131.674L343.857 135.569L326.982 135.525L326.955 145.895L340.045 145.929L340.035 149.825L326.945 149.791L326.913 161.95L343.999 161.995L343.988 165.89L322.697 165.835Z" fill="black"/>
<path d="M388.055 166.006L388.144 131.79L411.328 131.851L411.318 135.746L392.34 135.696L392.309 147.277L404.874 147.31L404.864 151.206L392.299 151.173L392.26 166.017L388.055 166.006Z" fill="black"/>
<path d="M460.447 149.614L471.435 149.643L471.397 163.961C468.203 165.812 464.363 166.732 459.877 166.721C455.18 166.708 451.522 165.084 448.902 161.849C446.282 158.614 444.979 154.276 444.993 148.837C445.007 143.538 446.315 139.312 448.917 136.161C451.554 133.009 455.185 131.439 459.811 131.452C464.578 131.464 468.411 133.106 471.312 136.377L468.623 139.265C467.609 138.14 466.315 137.224 464.74 136.518C463.2 135.812 461.658 135.457 460.116 135.453C456.682 135.444 454.032 136.648 452.169 139.064C450.305 141.481 449.367 144.742 449.357 148.848C449.345 153.2 450.388 156.606 452.484 159.068C454.616 161.495 457.644 162.714 461.57 162.724C463.988 162.731 465.864 162.437 467.197 161.844L467.219 153.527L460.437 153.509L460.447 149.614Z" fill="black"/>
<path d="M528.479 132.158L532.685 132.169L532.596 166.385L528.39 166.374L528.431 150.582L514.027 150.544L513.985 166.336L509.78 166.325L509.869 132.109L514.075 132.12L514.037 146.649L528.441 146.687L528.479 132.158Z" fill="black"/>
<path d="M68.7518 197.99L68.762 194.095L90.8419 194.153L90.8317 198.048L81.8946 198.025L81.8255 224.45L90.7626 224.473L90.7524 228.369L68.6725 228.311L68.6827 224.415L77.6198 224.439L77.6889 198.014L68.7518 197.99Z" fill="black"/>
<path d="M133.173 194.264L153.623 194.317L153.565 216.637C153.554 220.778 152.53 223.881 150.491 225.946C148.488 228.011 145.682 229.039 142.072 229.03C138.883 229.021 136.326 228.137 134.403 226.377C132.481 224.583 131.522 222.369 131.529 219.737C131.536 217.14 132.523 214.95 134.491 213.165L137.323 215.804C136.163 217.065 135.581 218.379 135.577 219.748C135.574 221.222 136.201 222.469 137.46 223.49C138.754 224.476 140.435 224.972 142.503 224.977C144.676 224.983 146.36 224.373 147.555 223.148C148.75 221.888 149.35 220.065 149.356 217.678L149.407 198.202L133.163 198.159L133.173 194.264Z" fill="black"/>
<path d="M215.369 228.695L203.898 212.557L199.153 217.756L199.125 228.653L194.919 228.642L195.008 194.426L199.214 194.437L199.168 212.071L214.933 194.478L220.663 194.493L206.745 209.512L220.889 228.71L215.369 228.695Z" fill="black"/>
<path d="M281.578 224.973L281.568 228.869L260.487 228.814L260.576 194.598L264.782 194.609L264.702 224.929L281.578 224.973Z" fill="black"/>
<path d="M328.559 216.095L323.403 197.5L323.321 228.978L319.273 228.968L319.362 194.752L326.775 194.771L331.984 213.209L337.236 194.799L344.596 194.818L344.507 229.034L340.459 229.023L340.541 197.755L335.13 216.112L328.559 216.095Z" fill="black"/>
<path d="M399.455 229.178L387.656 197.879L387.574 229.147L383.526 229.136L383.615 194.92L391.186 194.94L402.306 224.5L402.383 194.969L406.431 194.98L406.342 229.196L399.455 229.178Z" fill="black"/>
<path d="M467.557 225.04C465.131 228.262 461.937 229.868 457.977 229.858C454.017 229.847 450.831 228.225 448.422 224.99C446.012 221.755 444.814 217.505 444.828 212.241C444.841 206.907 446.062 202.629 448.488 199.407C450.915 196.184 454.109 194.579 458.069 194.589C462.029 194.599 465.215 196.24 467.624 199.51C470.034 202.744 471.232 207.011 471.218 212.311C471.204 217.574 469.984 221.818 467.557 225.04ZM457.987 225.857C460.616 225.864 462.74 224.624 464.358 222.136C465.977 219.649 466.792 216.37 466.802 212.299C466.813 208.193 466.016 204.892 464.41 202.396C462.804 199.865 460.687 198.596 458.059 198.59C455.395 198.583 453.254 199.84 451.635 202.363C450.051 204.85 449.254 208.147 449.243 212.253C449.233 216.324 450.013 219.607 451.583 222.103C453.189 224.599 455.324 225.85 457.987 225.857Z" fill="black"/>
<path d="M515.766 229.483L511.56 229.472L511.649 195.256L525.528 195.292C528.227 195.299 530.432 196.2 532.145 197.994C533.893 199.788 534.763 202.072 534.756 204.844C534.747 208.003 533.812 210.509 531.95 212.364C530.087 214.219 527.877 215.144 525.318 215.137L515.803 215.112L515.766 229.483ZM524.572 199.185L515.845 199.162L515.813 211.217L524.487 211.239C526.065 211.244 527.433 210.651 528.593 209.46C529.788 208.235 530.387 206.78 530.392 205.096C530.396 203.341 529.857 201.919 528.773 200.828C527.689 199.737 526.289 199.19 524.572 199.185Z" fill="black"/>
<path d="M89.1679 291.493L81.7436 275.892L74.0156 275.872L73.9748 291.453L69.7692 291.442L69.8586 257.226L83.5271 257.262C86.2608 257.269 88.5193 258.083 90.3025 259.701C92.0857 261.32 92.9739 263.428 92.9671 266.025C92.9605 268.552 92.3241 270.673 91.0579 272.39C89.7918 274.071 88.1942 275.155 86.2654 275.641L94.057 291.506L89.1679 291.493ZM81.7295 261.153L74.0541 261.133L74.0258 271.977L83.2783 272.001C84.7152 272.005 85.9608 271.464 87.0151 270.379C88.0695 269.259 88.5988 267.891 88.603 266.277C88.6071 264.698 87.9795 263.45 86.7202 262.535C85.4609 261.619 83.7973 261.158 81.7295 261.153Z" fill="black"/>
<path d="M129.562 288.388L132.516 284.816C134.998 286.999 138.57 288.096 143.232 288.108C145.685 288.114 147.632 287.611 149.071 286.597C150.546 285.583 151.285 284.199 151.29 282.444C151.294 280.795 150.614 279.582 149.249 278.807C147.884 278.031 145.223 277.059 141.266 275.89C137.519 274.793 134.806 273.575 133.127 272.237C131.483 270.864 130.665 268.879 130.672 266.282C130.68 263.264 131.842 260.933 134.16 259.29C136.512 257.647 139.458 256.83 142.998 256.839C147.344 256.851 151.056 258.053 154.134 260.448L151.549 263.652C148.961 261.61 145.932 260.584 142.463 260.575C140.114 260.569 138.256 261.038 136.886 261.982C135.517 262.891 134.83 264.222 134.826 265.977C134.821 267.626 135.431 268.856 136.656 269.667C137.881 270.442 140.034 271.272 143.116 272.158C144.692 272.618 145.9 272.99 146.74 273.273C147.616 273.521 148.701 273.945 149.996 274.545C151.327 275.145 152.341 275.744 153.041 276.342C153.74 276.941 154.351 277.732 154.875 278.716C155.433 279.7 155.71 280.771 155.707 281.929C155.698 285.439 154.447 288.032 151.954 289.71C149.497 291.353 146.358 292.17 142.538 292.16C136.86 292.145 132.535 290.887 129.562 288.388Z" fill="black"/>
<path d="M192.31 261.443L192.32 257.547L219.131 257.618L219.121 261.513L207.818 261.483L207.739 291.804L203.533 291.793L203.612 261.472L192.31 261.443Z" fill="black"/>
<path d="M275.909 281.718L275.972 257.767L280.178 257.778L280.116 281.571C280.107 284.87 279.049 287.517 276.94 289.511C274.867 291.506 272.114 292.499 268.679 292.49C265.244 292.481 262.478 291.474 260.381 289.468C258.318 287.462 257.291 284.81 257.3 281.511L257.362 257.718L261.568 257.729L261.505 281.68C261.5 283.68 262.161 285.296 263.49 286.528C264.819 287.76 266.552 288.379 268.69 288.384C270.828 288.39 272.564 287.78 273.899 286.556C275.234 285.331 275.904 283.718 275.909 281.718Z" fill="black"/>
<path d="M345.062 257.948L335.089 292.138L328.15 292.12L318.461 257.878L323.035 257.89L331.786 288.866L340.699 257.936L345.062 257.948Z" fill="black"/>
<path d="M397.976 292.303L394.765 273.87L391.457 292.286L384.728 292.268L381.085 258.042L385.028 258.053L388.257 289.593L391.828 270.967L397.821 270.983L401.4 289.627L404.794 258.104L408.632 258.115L404.705 292.32L397.976 292.303Z" fill="black"/>
<path d="M467.276 292.484L457.536 277.825L448.298 292.435L443.566 292.422L455.127 274.186L444.497 258.209L449.176 258.221L458.026 271.457L466.314 258.266L470.888 258.278L460.382 274.937L472.113 292.497L467.276 292.484Z" fill="black"/>
<path d="M523 277.628L522.96 292.63L518.755 292.619L518.794 277.617L506.753 258.372L511.484 258.384L520.959 273.78L530.41 258.434L535.141 258.446L523 277.628Z" fill="black"/>
<path d="M571.348 288.862L591.341 262.489L572.994 262.441L573.004 258.545L596.24 258.606L596.23 262.502L576.342 288.875L596.477 288.928L596.466 292.823L571.337 292.757L571.348 288.862Z" fill="black"/>
</svg>
