<svg width="147" height="241" viewBox="0 0 147 241" fill="none" xmlns="http://www.w3.org/2000/svg">
<path d="M56.4555 32.8286C57.9523 31.2127 59.9301 29.9738 61.908 28.8426C63.6186 27.873 65.4361 26.9573 67.2001 26.0416C78.0516 20.278 87.5133 12.5214 94.9436 3.47201C98.3113 3.04109 100.717 5.46503 102.802 7.78124C106.543 12.0366 110.339 16.4536 111.836 21.6246C112.584 24.2102 112.744 26.9034 112.905 29.5428C113.119 33.5289 113.386 37.461 113.6 41.4471C113.974 47.7493 113.065 54.9673 112.584 61.2695C112.103 68.0027 110.499 74.7358 106.116 80.2301C102.427 84.8625 97.1353 88.6331 90.9879 90.1952C90.9879 94.4506 90.9344 98.4366 90.9344 102.692C92.7519 103.554 94.5694 103.554 96.3869 104.416C97.8302 113.95 96.3335 123.538 92.7519 132.641C92.0035 134.526 91.1482 136.412 89.6515 137.866C88.1547 139.32 85.9096 140.344 83.7179 140.074C83.023 139.967 82.2211 139.59 82.2746 138.997C65.6499 130.486 51.3238 119.013 40.3654 105.062C44.2676 105.062 44.0538 105.062 45.9782 105.062C47.0473 99.1368 46.7266 92.673 47.7957 86.6939C48.651 81.6845 49.0252 75.6516 50.0408 70.6959C52.4998 58.4685 55.5468 45.1638 56.4555 32.7748V32.8286Z" fill="#FBBD9C"/>
<path d="M90.6138 4.17216C94.9971 3.68737 99.4874 4.06443 103.764 5.1956C104.78 5.46492 105.795 5.78812 106.597 6.4345C107.399 7.08089 107.987 8.05046 108.468 8.96617C111.034 13.8141 112.424 19.2006 112.584 24.6948C112.744 29.5427 114.027 33.4749 114.348 38.3228C114.615 42.3627 114.883 46.4564 115.631 50.4425C116.273 53.7821 117.288 57.014 118.09 60.2998C120.014 68.4335 120.656 76.8365 119.907 85.1856C119.266 92.7268 119.48 100.268 118.25 107.701C112.637 107.378 106.704 106.139 101.091 105.816C97.8303 105.654 94.4626 105.439 91.4691 104.092C91.0949 103.931 90.7207 103.715 90.5069 103.392C90.2396 103.015 90.293 102.53 90.293 102.045C90.5069 98.5442 90.7207 96.6051 90.9345 93.1038C87.353 89.4948 99.8081 85.8859 103.283 81.7382C104.192 80.6609 105.154 79.5298 105.795 78.2909C107.132 75.7592 107.345 72.7966 107.506 69.9417C107.773 65.6864 107.987 61.4849 108.254 57.2295C108.521 52.2739 107.987 47.2106 109.003 42.3627C109.858 38.1073 109.056 33.5826 107.292 29.6505C103.924 22.1632 101.251 14.7298 95.0506 9.3971C89.9723 14.2988 84.4129 18.7158 79.3346 23.6175C73.6149 29.1118 67.414 34.8754 59.6095 36.2759C62.015 44.1941 60.7321 52.4355 59.1284 60.5692C56.1883 75.3283 52.7671 90.0874 52.3395 105.17C49.7736 104.739 46.6732 106.193 44.1608 106.786C42.9848 107.055 41.7553 107.055 40.5258 107.109C37.853 107.324 35.2337 108.132 32.8816 109.425C28.6052 109.156 23.7407 107.001 19.8919 108.94C17.8071 109.964 14.3325 108.671 13.8514 110.071C12.2477 114.596 9.84224 117.828 9.09386 121.922C8.29202 126.285 6.15379 131.887 5.51232 136.25C5.08468 136.465 -0.15398 130.756 0.166754 130.432C-0.52817 127.147 1.0755 123.43 2.62572 120.467C4.65703 116.751 6.63489 112.98 8.6662 109.263C12.3012 102.476 11.1786 94.0195 15.5085 87.7173C18.3417 83.5697 20.0523 78.9372 21.2817 74.0355C23.0458 66.8714 26.3066 60.246 27.7499 53.028C28.5517 49.042 29.3536 45.0559 30.1554 41.0699C31.5452 34.229 33.8973 27.5497 37.1046 21.3552C38.4945 18.6619 39.029 15.7532 41.1673 13.5986C43.1451 11.6056 45.123 9.61255 47.1009 7.6734C51.3239 3.41804 57.7385 1.96368 63.6721 1.26343C66.826 0.886369 69.9799 0.77864 73.1338 0.401582C75.0582 0.186121 76.9826 -0.083204 78.907 0.0245266C82.9696 0.293853 86.9788 2.5562 90.6138 4.33375V4.17216Z" fill="#FFE1A8"/>
<path d="M44.5349 103.392C41.0603 103.661 37.5322 103.931 34.0576 104.146C34.5921 105.816 35.0733 107.486 35.6078 109.156C40.2585 124.184 44.9625 139.213 49.6132 154.241C54.2638 153.756 59.3956 153.595 64.0462 153.11C83.3972 151.063 102.748 149.07 122.153 148.316C123.275 142.229 123.81 135.765 120.228 130.594C115.952 124.4 111.355 118.528 107.666 112.011C105.849 108.725 103.978 105.978 101.305 103.284C100.022 101.938 97.563 102.315 95.7455 101.668C95.4782 105.87 95.3178 110.179 95.0505 114.381C94.5694 121.491 93.9814 128.978 89.5446 134.742C89.0635 135.388 88.4755 136.035 87.7271 136.358C86.9253 136.735 85.9631 136.681 85.1078 136.627C79.1207 136.142 73.2941 133.611 69.0176 129.571C63.2979 124.238 57.9523 118.528 53.1413 112.442C50.7358 109.371 47.1542 106.247 44.4814 103.392H44.5349Z" fill="#5A5A82"/>
<path d="M105.207 103.823C110.98 103.823 116.754 105.17 121.992 107.701C124.398 108.886 126.696 110.341 128.514 112.388C131.133 115.35 132.47 119.282 133.699 123.161C139.579 141.69 144.337 160.597 147.918 179.773C143.749 183.813 143.588 192.108 141.397 197.603C139.633 201.966 136.693 205.736 134.287 209.722C131.882 213.762 129.85 218.341 130.385 223.081C130.759 226.474 132.47 229.706 135.035 231.807C138.403 234.554 143.161 235.308 147.116 233.638C147.918 233.315 148.667 232.884 149.362 232.4C152.141 230.514 154.386 227.713 155.669 224.481C157.166 228.36 155.135 232.992 152.195 235.793C149.201 238.594 145.192 239.779 141.236 240.372C139.793 240.587 138.296 240.695 136.96 240.156C134.715 239.24 133.485 236.816 132.47 234.554C129.85 228.791 127.177 222.973 124.558 217.21C123.489 214.893 122.42 212.523 121.885 210.045C120.87 205.305 121.778 200.35 122.58 195.556C124.558 183.274 125.413 170.831 125.2 158.389C125.093 150.847 123.489 143.199 123.061 135.604C122.794 130.702 119.64 126.339 116.326 122.891C111.194 117.559 109.484 109.91 105.154 103.877L105.207 103.823Z" fill="#5A5A82"/>
<path d="M124.825 146.592C126.269 139.59 125.467 132.156 122.634 125.531C121.137 122.083 119.106 118.852 116.914 115.727C114.829 112.711 112.531 109.856 110.178 107.055C107.452 103.877 103.764 100.591 99.5943 101.345C103.871 106.947 106.33 113.68 110.553 119.282C112.37 121.706 114.562 123.915 116.112 126.5C118.892 131.294 119.907 137.597 117.662 142.66C96.4404 142.606 75.5927 148.047 54.3708 148.477C50.6823 136.358 46.9939 124.507 43.3054 112.388C42.8243 110.879 42.3967 109.425 41.5948 108.025C40.8465 106.732 39.7774 105.385 40.0981 103.931C36.8908 104.092 33.6834 104.2 30.4761 104.362C32.935 109.425 34.3783 115.62 36.1424 121.006C40.2585 133.503 42.4501 146.754 48.651 158.443C49.6132 160.274 49.3459 162.482 50.0409 164.422C52.0722 169.754 54.05 175.141 56.0813 180.473C56.0813 180.581 55.8675 180.635 55.8675 180.473C57.4177 182.251 60.9993 182.305 63.2444 181.551C65.4895 180.797 67.4139 179.342 69.4987 178.211C73.4544 176.057 77.9982 175.195 82.2746 173.848C87.7271 172.124 92.8054 169.7 97.9371 167.223C104.566 164.045 111.194 160.866 117.823 157.688C122.153 155.642 123.863 151.278 124.825 146.7V146.592Z" fill="#CCC9E3"/>
<path d="M39.8843 173.686C40.8465 173.686 41.8621 173.686 42.8243 173.686C46.3524 173.363 49.827 173.04 53.3551 172.771C46.0317 150.794 39.0824 128.709 32.6143 106.462C26.7876 104.523 23.3664 103.877 17.0587 105.708C14.1186 106.57 12.0873 110.556 10.056 112.765C8.02466 115.027 5.13806 119.606 6.36754 122.407C4.17586 140.021 8.93342 157.688 14.4394 174.494C14.6532 175.195 14.9204 175.949 15.1343 176.649C21.7628 175.787 28.3913 175.033 35.0198 174.333C36.5166 173.902 38.1202 173.686 39.9377 173.632L39.8843 173.686Z" fill="#5A5A82"/>
<path d="M56.0279 180.797C56.9366 183.382 57.8988 185.968 58.8076 188.553C59.2887 189.846 59.7698 191.193 60.732 192.162C62.9237 194.371 66.5586 193.886 69.4987 193.078C81.3124 189.846 92.2708 184.136 103.55 179.342C110.553 176.326 117.662 173.686 124.879 171.37C125.413 163.937 125.146 156.019 124.612 148.585C122.473 153.325 117.448 156.18 112.851 158.55C102.32 163.991 91.2552 168.138 80.1898 172.286C77.1429 173.417 74.0959 174.548 70.8885 175.033C69.4452 175.249 68.0019 175.302 66.6121 175.733C65.0619 176.272 63.672 177.349 62.2822 178.265C60.2509 179.612 58.2196 180.043 55.921 180.797H56.0279Z" fill="#CCC9E3"/>
<path d="M76.7687 44.6249C77.7429 44.6249 78.5327 43.8291 78.5327 42.8474C78.5327 41.8657 77.7429 41.0698 76.7687 41.0698C75.7944 41.0698 75.0046 41.8657 75.0046 42.8474C75.0046 43.8291 75.7944 44.6249 76.7687 44.6249Z" fill="#070808"/>
<path d="M94.516 44.6249C95.4902 44.6249 96.28 43.8291 96.28 42.8474C96.28 41.8657 95.4902 41.0698 94.516 41.0698C93.5417 41.0698 92.752 41.8657 92.752 42.8474C92.752 43.8291 93.5417 44.6249 94.516 44.6249Z" fill="#050606"/>
<path d="M92.3243 38.1072C94.409 37.1377 96.868 37.0299 99.0597 37.8379C101.251 38.6459 99.327 37.7302 99.2201 37.6763C96.9749 36.8145 94.4625 36.9222 92.2708 37.9456C90.0791 38.9691 92.2708 38.1072 92.3777 38.0534L92.3243 38.1072Z" fill="#070808"/>
<path d="M70.0333 39.3462C72.118 38.3767 74.577 38.2689 76.7687 39.0769C78.9604 39.8849 77.036 38.9692 76.9291 38.9153C74.6839 38.0535 72.1715 38.1612 69.9798 39.1846C67.7881 40.2081 69.9798 39.3462 70.0867 39.2924L70.0333 39.3462Z" fill="#070808"/>
</svg>
