<svg width="1683" height="1368" viewBox="0 0 1683 1368" fill="none" xmlns="http://www.w3.org/2000/svg">
<path d="M1682.91 514.366L1402.89 827.053L1408.56 719.712L1677.58 433.694L1682.91 514.366Z" fill="url(#paint0_linear_93_243)"/>
<path d="M1211.22 715.094L1115.99 826.208L1129.4 837.706L1224.64 726.592L1211.22 715.094Z" fill="url(#paint1_linear_93_243)"/>
<path d="M991.377 654.477L896.141 765.591L909.556 777.089L1004.79 665.975L991.377 654.477Z" fill="url(#paint2_linear_93_243)"/>
<path d="M774.944 582.177L679.708 693.29L693.123 704.788L788.359 593.674L774.944 582.177Z" fill="url(#paint3_linear_93_243)"/>
<path d="M589.883 515.587L494.648 626.7L508.062 638.198L603.298 527.084L589.883 515.587Z" fill="url(#paint4_linear_93_243)"/>
<path d="M407.573 453.111L312.336 564.226L325.751 575.724L420.988 464.609L407.573 453.111Z" fill="url(#paint5_linear_93_243)"/>
<path d="M1362.22 1274.75L116.145 902.058L0.470703 477.031L1379.56 838.388L1362.22 1274.75Z" fill="url(#paint6_linear_93_243)"/>
<path d="M1535.9 939.394L1362.22 1274.75L1379.56 838.388L1547.24 650.709L1535.9 939.394Z" fill="url(#paint7_linear_93_243)"/>
<path d="M287.156 410.359L182.816 529.033L0.470703 477.03L128.146 346.688L287.156 410.359Z" fill="url(#paint8_linear_93_243)"/>
<path d="M1408.56 719.712L93.4763 268.684L451.5 0L1677.58 433.694L1408.56 719.712Z" fill="url(#paint9_linear_93_243)"/>
<path d="M204.484 771.717C229.155 771.717 249.154 751.718 249.154 727.047C249.154 702.377 229.155 682.378 204.484 682.378C179.814 682.378 159.815 702.377 159.815 727.047C159.815 751.718 179.814 771.717 204.484 771.717Z" fill="#F06F35"/>
<path d="M372.161 821.053C396.831 821.053 416.83 801.054 416.83 776.383C416.83 751.713 396.831 731.714 372.161 731.714C347.491 731.714 327.492 751.713 327.492 776.383C327.492 801.054 347.491 821.053 372.161 821.053Z" fill="#FFE1A8"/>
<path d="M1207.88 1069.4C1232.55 1069.4 1252.55 1049.4 1252.55 1024.73C1252.55 1000.06 1232.55 980.062 1207.88 980.062C1183.21 980.062 1163.21 1000.06 1163.21 1024.73C1163.21 1049.4 1183.21 1069.4 1207.88 1069.4Z" fill="#ADBE70"/>
<path d="M964.867 980.062C989.537 980.062 1009.54 960.063 1009.54 935.393C1009.54 910.722 989.537 890.723 964.867 890.723C940.196 890.723 920.196 910.722 920.196 935.393C920.196 960.063 940.196 980.062 964.867 980.062Z" fill="#FFE1A8"/>
<path d="M752.852 917.391C777.523 917.391 797.521 897.392 797.521 872.722C797.521 848.051 777.523 828.052 752.852 828.052C728.182 828.052 708.183 848.051 708.183 872.722C708.183 897.392 728.182 917.391 752.852 917.391Z" fill="#F06F35"/>
<path d="M545.839 864.388C570.509 864.388 590.508 844.389 590.508 819.719C590.508 795.049 570.509 775.049 545.839 775.049C521.169 775.049 501.17 795.049 501.17 819.719C501.17 844.389 521.169 864.388 545.839 864.388Z" fill="#ADBE70"/>
<path d="M508.836 612.371L325.825 566.702L417.164 466.029L581.841 525.366L508.836 612.371Z" fill="#D9C697"/>
<path d="M313.158 562.036L184.149 527.701L279.823 415.693L412.831 458.696L313.158 562.036Z" fill="#D16B3B"/>
<path d="M708.515 668.376L526.505 614.04L601.842 529.034L773.853 584.704L708.515 668.376Z" fill="#93A35F"/>
<path d="M938.198 722.047L723.516 671.711L787.521 594.039L983.866 667.044L938.198 722.047Z" fill="#E06732"/>
<path d="M1402.89 827.052L96.1441 350.022L93.4763 268.684L1408.56 719.712L1402.89 827.052Z" fill="url(#paint10_linear_93_243)"/>
<path d="M1157.54 781.383L951.864 731.046L993.202 676.376L1189.55 744.714L1157.54 781.383Z" fill="#D6BF8F"/>
<path d="M1171.21 785.716L1203.21 749.38L1395.23 822.385L1376.89 845.386L1171.21 785.716Z" fill="#869557"/>
<path d="M723.85 887.057L731.85 1275.75L761.52 1214.74L794.522 1252.75L784.855 891.724L775.52 892.39C758.519 892.39 741.185 886.723 723.85 887.39V887.057Z" fill="#F06F35"/>
<path d="M169.482 724.38L129.146 1084.07L162.148 1054.4L198.817 1118.41L232.152 737.714L222.485 736.714C204.818 734.714 187.484 726.047 169.816 724.047H169.482V724.38Z" fill="#F06F35"/>
<path d="M332.158 768.049L299.49 1072.73L336.493 1048.73L381.828 1104.4L405.163 781.716L393.829 780.716C373.161 778.383 352.826 770.716 332.158 768.382V768.049Z" fill="#FFE1A8"/>
<path d="M507.837 821.719L468.168 1181.41L503.836 1134.41L553.505 1174.07L574.508 835.72L564.173 834.72C545.172 832.719 526.838 824.052 507.837 821.719Z" fill="#ADBE70"/>
<path d="M933.864 926.726L929.197 1319.42L962.532 1255.41L991.535 1304.75L995.868 933.06H986.201C968.533 933.06 951.198 926.726 933.53 926.726H933.864Z" fill="#FFE1A8"/>
<path d="M1172.55 1012.06L1147.54 1367.75L1204.88 1311.75L1259.55 1357.09L1242.88 1018.4H1232.22C1212.55 1018.4 1192.55 1012.06 1172.88 1012.06H1172.55Z" fill="#ADBE70"/>
<defs>
<linearGradient id="paint0_linear_93_243" x1="1682.91" y1="630.373" x2="1402.89" y2="630.373" gradientUnits="userSpaceOnUse">
<stop stop-color="#CCC9E3"/>
<stop offset="0.4" stop-color="#5A5A82"/>
</linearGradient>
<linearGradient id="paint1_linear_93_243" x1="1359" y1="840.91" x2="1229.07" y2="908.636" gradientUnits="userSpaceOnUse">
<stop stop-color="#CCC9E3"/>
<stop offset="0.8" stop-color="#5A5A82"/>
</linearGradient>
<linearGradient id="paint2_linear_93_243" x1="1135.47" y1="779.215" x2="1005.52" y2="846.757" gradientUnits="userSpaceOnUse">
<stop stop-color="#CCC9E3"/>
<stop offset="0.8" stop-color="#5A5A82"/>
</linearGradient>
<linearGradient id="paint3_linear_93_243" x1="915.166" y1="705.382" x2="785.241" y2="773.108" gradientUnits="userSpaceOnUse">
<stop stop-color="#CCC9E3"/>
<stop offset="0.8" stop-color="#5A5A82"/>
</linearGradient>
<linearGradient id="paint4_linear_93_243" x1="727.875" y1="638.013" x2="597.951" y2="705.739" gradientUnits="userSpaceOnUse">
<stop stop-color="#CCC9E3"/>
<stop offset="0.8" stop-color="#5A5A82"/>
</linearGradient>
<linearGradient id="paint5_linear_93_243" x1="541.643" y1="574.223" x2="411.717" y2="641.949" gradientUnits="userSpaceOnUse">
<stop stop-color="#CCC9E3"/>
<stop offset="0.8" stop-color="#5A5A82"/>
</linearGradient>
<linearGradient id="paint6_linear_93_243" x1="177.349" y1="300.053" x2="1257.48" y2="1379.56" gradientUnits="userSpaceOnUse">
<stop stop-color="#CCC9E3"/>
<stop offset="1" stop-color="#5D5C85"/>
</linearGradient>
<linearGradient id="paint7_linear_93_243" x1="1547.24" y1="962.729" x2="1362.22" y2="962.729" gradientUnits="userSpaceOnUse">
<stop stop-color="#CCC9E3"/>
<stop offset="0.3" stop-color="#5A5A82"/>
</linearGradient>
<linearGradient id="paint8_linear_93_243" x1="87.4762" y1="387.358" x2="205.817" y2="505.699" gradientUnits="userSpaceOnUse">
<stop stop-color="#CCC9E3"/>
<stop offset="0.8" stop-color="#5A5A82"/>
</linearGradient>
<linearGradient id="paint9_linear_93_243" x1="93.4763" y1="359.856" x2="1677.58" y2="359.856" gradientUnits="userSpaceOnUse">
<stop offset="0.2" stop-color="#CCC9E3"/>
<stop offset="1" stop-color="#5A5A82"/>
</linearGradient>
<linearGradient id="paint10_linear_93_243" x1="838.79" y1="390.658" x2="671.113" y2="681.677" gradientUnits="userSpaceOnUse">
<stop stop-color="#CCC9E3"/>
<stop offset="0.6" stop-color="#636188"/>
<stop offset="1" stop-color="#5A5A82"/>
</linearGradient>
</defs>
</svg>
