<svg width="616" height="588" viewBox="0 0 616 588" fill="none" xmlns="http://www.w3.org/2000/svg">
<path d="M271.723 388.235C216.551 430.832 164.462 476.023 116.263 524.571C68.0647 573.118 92.0842 554.546 80.3242 569.688C77.1288 573.545 74.4442 577.26 70.441 580.355C57.9206 589.785 38.7714 589.217 25.3536 580.626C11.9358 572.035 4.63002 558.278 1.55883 543.829C0.0738175 539.306 0.120886 534.354 2.14615 530.331C18.2179 501.143 44.2448 475.096 68.1629 451.12C92.0811 427.144 76.9593 442.239 81.0278 437.644C94.831 421.93 109.145 406.072 125.223 392.191C141.301 378.309 141.188 384.76 151.487 383.853C191.366 379.608 233.092 379.292 271.872 388.687L271.723 388.235Z" fill="#ADBE70"/>
<path d="M109.965 0.910724C83.837 21.5546 96.6197 48.5946 104.193 71.6601C111.767 94.7257 126.855 115.196 145.072 133.308C149.919 137.878 155.425 142.757 162.297 143.303C157.29 150.136 152.283 156.968 147.787 163.658C142.055 171.682 136.472 180.157 135.059 189.441C133.135 198.869 135.594 208.056 138.053 217.244L142.211 229.909C144.867 234.598 148.757 237.954 153.307 241.619C164.319 251.377 175.331 261.133 186.195 270.439C197.059 279.745 194.024 272.201 196.958 274.343C193.086 274.439 190.252 277.7 189.611 280.842C188.969 283.985 188.477 287.579 187.473 291.317C186.683 294.007 184.871 296.983 184.592 299.53C183.523 304.767 185.965 310.504 188.768 315.645C192.677 322.453 197.096 329.116 202.537 335.495L201.794 333.234C202.685 335.947 204.764 342.279 204.485 344.826C185.586 350.115 168.979 360.687 153.031 371.569C144.365 377.451 135.7 383.333 127.034 389.214C124.266 390.976 121.136 393.333 119.835 396.166C159.892 383.971 202.871 385.772 244.187 391.001C252.229 391.713 260.42 392.878 267.161 396.423C273.903 399.969 280.579 405.014 281.785 412.084C283.133 404.3 283.293 392.897 279.385 386.09C278.494 383.376 275.56 381.235 274.009 378.212C271.8 374.88 271.634 370.976 270.446 367.358C266.864 353.052 263.281 338.745 258.678 324.724L225.562 223.87C201.873 165.315 178.63 108.115 152.024 50.8692C125.419 -6.37659 139.598 7.92836 109.24 2.10201L109.965 0.910724Z" fill="#98A563"/>
<path d="M433.64 327.619C426.435 319.265 405.699 266.303 386.681 262.736C383.402 264.641 379.974 266.093 376.399 267.094C368.048 277.332 363.511 304.28 362.228 310.564C360.945 316.849 362.61 355.889 363.994 355.008C386.005 343.911 409.27 334.932 433.64 327.619Z" fill="#98A563"/>
<path d="M403.207 335.148C420.574 330.289 441.915 330.736 459.615 333.685C472.634 335.968 484.781 338.988 494.902 346.033C505.534 352.934 515.46 364.477 519.683 375.641C521.91 382.425 522.457 389.185 521.982 396.231C521.358 402.825 516.667 414.016 513.193 420.42C504.218 437.252 487.415 452.322 466.306 454.278C460.39 454.946 450.667 454.21 444.668 452.926C410.651 446.148 383.548 419.658 376.747 390.451C374.798 381.12 365.776 360.435 368.359 351.318C370.943 342.2 392.117 338.743 402.844 335.742L403.207 335.148Z" fill="#FCFAEC"/>
<path d="M551.66 510.395C559.155 504.347 566.289 498.895 573.636 492.395C575.447 489.419 577.918 486.752 580.686 484.99L580.388 484.084C619.743 449.369 622.985 398.093 606.621 356.747C590.256 315.401 551.647 282.748 505.449 266.046C470.013 253.246 425.983 260.134 387.274 264.545C395.305 277.112 397.355 291.848 402.469 305.726C407.073 319.746 418.103 332.955 434.122 335.88C440.632 337.021 447.058 336.209 453.782 336.303C478.995 336.655 502.897 351.696 510.898 372.667C520.509 379.854 519.244 389.59 516.743 400.66C513.732 411.873 506.255 421.372 497.458 430.253C488.513 438.682 475.446 441.35 464.44 446.899C454.818 451.567 442.393 451.094 432.652 446.906C422.911 442.718 415.64 435.863 408.732 428.414C375.725 390.737 366.179 339.582 371.482 291.186C373.993 268.261 379.718 244.931 387.273 222.077C387.255 218.625 388.918 215.198 390.73 212.222C398.071 190.415 407.092 168.631 415.9 147.895L417.219 148.515C417.219 148.515 417.943 147.323 418.305 146.728C408.137 144.635 398.693 141.352 389.249 138.069C373.36 132.145 356.45 126.506 341.286 119.391C311.791 167.15 303.014 221.95 297.515 274.846C296.185 286.082 294.13 298.509 296.673 309.649C278.407 254.02 260.29 198.845 243.046 142.93L233.541 113.984C218.364 76.2558 191.077 42.4105 156.015 17.1602C142.151 7.2124 125.224 -1.87695 107.049 2.22101C119.326 2.24244 125.871 10.2868 133.225 19.0932C140.578 27.8996 144.505 38.1601 148.431 48.4193C182.961 139.99 217.638 232.012 252.167 323.583C266.323 361.596 271.515 404.588 297.335 437.362C307.855 450.715 320.78 462.901 334.067 474.491C341.189 480.893 348.459 487.748 355.581 494.151C357.856 495.983 361.004 497.077 363.279 498.91C384.413 515.712 411.694 534.251 441.606 538.72C452.796 540.527 464.414 540.24 475.883 539.5C503.419 536.733 529.814 525.395 552.467 511.155L552.17 510.252L551.66 510.395Z" fill="#ADBE70"/>
</svg>
