<svg width="673" height="552" viewBox="0 0 673 552" fill="none" xmlns="http://www.w3.org/2000/svg">
<path d="M107.509 458.352C105.799 449.679 103.935 441.458 103.767 432.808C103.431 416.265 101.254 405.157 102.459 388.638C105.613 339.68 111.993 284.245 150.011 252.798C174.023 232.976 207.92 225.135 238.759 232.421C248.319 234.687 257.882 238.471 267.443 241.495C283.944 246.899 301.367 250.344 318.633 251.966C323.412 252.341 328.499 252.568 333.275 251.425C337.588 250.124 341.284 247.599 344.671 245.222C359.603 233.914 371.289 217.702 377.733 200.199C378.964 198.851 379.887 197.651 380.347 196.293C380.963 195.998 381.271 195.851 381.578 194.945C411.871 152.763 447.806 74.0992 466.529 25.6757C486.697 11.8656 513.689 22.8872 528.674 42.6817C492.55 100.557 446.448 183.317 417.73 245.247C408.669 265.139 386.805 278.621 368.021 290.631C362.786 293.891 357.551 297.15 351.697 299.188C331.211 307.076 308.238 303.245 286.498 298.825C278.788 297.193 270.926 296.014 263.216 294.383C250.881 291.923 241.309 282.83 228.974 280.371C216.948 277.764 203.079 279.075 193.535 286.671C172.6 302.745 173.269 334.313 170.539 360.672L167.807 385.513C165.683 405.508 165.718 426.75 162.053 446.722C160.68 455.35 158.691 464.272 153.153 470.713C147.77 477.461 137.295 480.946 129.58 476.28C122.021 471.919 111.238 475.552 107.509 458.352Z" fill="#ADBE70"/>
<path d="M454.818 392.663C440.946 393.216 426.456 391.786 413.194 388.251C393.918 382.654 373.562 377.194 356.897 366.174C340.232 355.154 350.572 361.983 347.177 359.809C340.233 355.154 335.135 348.099 328.806 342.391C318.773 333.898 310.124 324.363 301.63 314.375C296.379 308.532 291.438 302.541 286.342 297.003C289.422 295.532 294.505 294.242 297.899 295.658C299.758 301.603 304.546 306.529 310.714 308.137C313.798 308.942 316.573 309.135 319.81 309.486C326.748 310.348 333.535 313.18 339.09 317.359C340.17 317.982 341.096 319.058 342.329 319.228C344.488 319.715 347.105 318.085 348.799 316.897C364.839 322.901 382.56 320.129 399.672 321.446C414.779 322.581 429.429 326.591 444.384 328.937C459.339 331.284 473.977 328.467 488.615 325.65C546.088 314.519 600.61 290.751 648.182 257.777C650.367 273.436 644.999 289.287 635.926 301.593C626.852 313.899 613.922 323.872 600.218 331.558C586.513 339.243 567.882 351.559 551.097 360.716C522.301 376.37 490.259 387.122 457.9 392.709C456.513 392.992 456.362 394.203 455.435 393.127L454.818 392.663Z" fill="#98A563"/>
<path d="M283.255 295.438C286.339 296.243 290.343 294.33 292.806 292.394C302.987 297.401 314.245 300.754 325.5 302.59C356.026 306.988 386.376 298.185 415.959 291.645C422.893 290.231 430.134 288.67 436.766 291.196C443.398 293.722 452.047 304.016 447.277 308.952C442.507 313.888 446.05 312.575 447.748 313.662C468.825 290.307 495.766 271.743 525.341 260.652C534.275 257.144 544.444 254.564 554.004 256.83C563.564 259.096 573.136 268.949 570.069 278.006C574.983 267.307 583.909 258.488 594.69 253.338C599.002 251.278 603.624 249.83 608.091 248.075C618.258 244.737 629.195 241.41 639.681 243.994C647.398 250.177 645.244 252.724 648.18 257.016C600.308 294.689 543.635 323.281 483.854 337.412C466.136 341.7 447.337 344.607 429.144 341.15C387.976 333.104 346.03 320.495 306.088 308.067C298.377 305.677 288.506 301.282 283.101 295.132L283.255 295.438Z" fill="#ADBE70"/>
</svg>
