<svg width="199" height="143" viewBox="0 0 199 143" fill="none" xmlns="http://www.w3.org/2000/svg">
<path d="M84.0244 78.0169C109.211 78.0169 129.629 60.5523 129.629 39.0085C129.629 17.4647 109.211 0 84.0244 0C58.8378 0 38.42 17.4647 38.42 39.0085C38.42 60.5523 58.8378 78.0169 84.0244 78.0169Z" fill="#FFE1A8"/>
<path d="M144.63 114.017C174.128 114.017 198.04 94.1357 198.04 69.6114C198.04 45.0871 174.128 25.2063 144.63 25.2063C115.132 25.2063 91.2197 45.0871 91.2197 69.6114C91.2197 94.1357 115.132 114.017 144.63 114.017Z" fill="#FFE1A8"/>
<path d="M88.2216 142.82C118.382 142.82 142.831 128.313 142.831 110.419C142.831 92.5236 118.382 78.0168 88.2216 78.0168C58.0615 78.0168 33.6119 92.5236 33.6119 110.419C33.6119 128.313 58.0615 142.82 88.2216 142.82Z" fill="#FFE1A8"/>
<path d="M51.0119 110.419C79.185 110.419 102.024 91.3433 102.024 67.8125C102.024 44.2818 79.185 25.2063 51.0119 25.2063C22.8388 25.2063 0 44.2818 0 67.8125C0 91.3433 22.8388 110.419 51.0119 110.419Z" fill="#FFE1A8"/>
<path d="M170.25 142.766L121.037 130.076L70.2324 131.024L105.818 94.752L130.402 50.2815L144.019 99.2329L170.25 142.766Z" fill="#FFE1A8"/>
</svg>
