<svg width="187" height="162" viewBox="0 0 187 162" fill="none" xmlns="http://www.w3.org/2000/svg">
<path d="M107.729 81.9389C83.9644 81.9389 64.6992 63.5963 64.6992 40.9695C64.6992 18.3427 83.9644 0 107.729 0C131.494 0 150.759 18.3427 150.759 40.9695C150.759 63.5963 131.494 81.9389 107.729 81.9389Z" fill="#FFE1A8"/>
<path d="M50.5445 119.748C22.7118 119.748 0.148941 98.8679 0.148941 73.1108C0.148941 47.3537 22.7118 26.4734 50.5445 26.4734C78.3771 26.4734 100.94 47.3537 100.94 73.1108C100.94 98.8679 78.3771 119.748 50.5445 119.748Z" fill="#FFE1A8"/>
<path d="M103.769 150C75.3112 150 52.2417 134.764 52.2417 115.969C52.2417 97.175 75.3112 81.939 103.769 81.939C132.226 81.939 155.296 97.175 155.296 115.969C155.296 134.764 132.226 150 103.769 150Z" fill="#FFE1A8"/>
<path d="M138.868 115.97C112.285 115.97 90.7352 95.9352 90.7352 71.2215C90.7352 46.5078 112.285 26.4734 138.868 26.4734C165.45 26.4734 187 46.5078 187 71.2215C187 95.9352 165.45 115.97 138.868 115.97Z" fill="#FFE1A8"/>
<path d="M13 162L63.6804 147.331L116 148.428L79.3538 106.45L54.0361 55L40.0131 111.647L13 162Z" fill="#FFE1A8"/>
</svg>
